<?xml version="1.0" encoding="UTF-8" standalone="no"?>
<!DOCTYPE svg PUBLIC "-//W3C//DTD SVG 1.1//EN" "http://www.w3.org/Graphics/SVG/1.1/DTD/svg11.dtd">
<svg width="100%" height="100%" viewBox="0 0 115 115" version="1.1" xmlns="http://www.w3.org/2000/svg" xmlns:xlink="http://www.w3.org/1999/xlink" xml:space="preserve" xmlns:serif="http://www.serif.com/" style="fill-rule:evenodd;clip-rule:evenodd;stroke-linejoin:round;stroke-miterlimit:2;">
    <g>
        <g transform="matrix(0.77893,0,0,0.77893,7.695787,20.376438)">
            <path d="M67.78,51.653C59.911,50.013 50.916,54.035 50.833,63.113C50.769,71.813 56.797,78.713 65.792,78.594C71.838,77.971 77.774,73.546 78.892,67.281C80.211,59.943 75.007,53.165 67.78,51.653ZM67.01,65.119C66.892,66.522 65.698,67.611 64.29,67.6C62.613,67.628 60.91,66.336 61.569,64.495C62.055,63.139 63.703,61.756 65.233,62.26C66.41,62.687 67.148,63.874 67.01,65.119Z" style="fill-rule:nonzero;"/>
            <path d="M64.968,63.617C64.11,63.472 63.26,63.947 62.934,64.753C62.494,65.769 63.401,66.246 64.29,66.227C64.994,66.259 65.602,65.712 65.646,65.009C65.655,64.542 65.49,63.791 64.968,63.617Z" style="fill-rule:nonzero;"/>
            <path d="M112.9,35.457C108.164,27.58 101.852,18.034 93.6,13.482C71.279,1.2 41.206,6.217 23.178,23.76C4.335,42.1 1.248,73.9 15.9,95.76C29.324,115.776 53.316,125.715 77,119.77C102.539,113.358 121.208,90.649 121.2,64.056C120.938,53.969 118.079,44.117 112.9,35.457ZM110.66,78.869C110.852,78.887 110.88,80.353 110.385,82.652C110.09,83.995 109.688,85.312 109.185,86.591C108.558,88.164 107.788,89.675 106.885,91.107C105.956,92.536 104.878,93.862 103.669,95.064C102.672,96.037 101.562,96.886 100.362,97.593C98.256,98.802 96.845,99.022 96.762,98.866C96.653,98.646 97.999,98.005 99.749,96.686C100.24,96.324 100.711,95.936 101.159,95.522C101.659,95.11 102.13,94.588 102.653,94.066C103.728,92.88 104.708,91.612 105.584,90.273C106.437,88.913 107.202,87.499 107.874,86.041C108.469,84.676 108.982,83.431 109.33,82.35C110.073,80.215 110.431,78.832 110.66,78.869ZM80.421,14.288C80.85,14.216 81.288,14.2 81.721,14.242C83.333,14.359 84.918,14.721 86.421,15.314C91.351,17.229 95.887,20.033 99.805,23.586C100.386,24.107 100.933,24.664 101.444,25.253C101.921,25.821 102.397,26.361 102.844,26.929C103.265,27.552 103.678,28.166 104.071,28.77C104.464,29.374 104.749,29.998 105.071,30.593C106.129,32.718 106.972,34.943 107.59,37.235C108.653,41.109 109.01,43.546 108.827,43.601C108.598,43.665 107.856,41.293 106.546,37.564C105.804,35.392 104.891,33.282 103.816,31.253C103.486,30.703 103.202,30.099 102.827,29.553C102.452,29.007 102.075,28.463 101.691,27.904C101.233,27.355 100.756,26.804 100.271,26.246C99.797,25.705 99.289,25.194 98.75,24.716C94.946,21.302 90.655,18.474 86.017,16.326C84.623,15.677 83.165,15.176 81.666,14.832C81.153,14.686 80.704,14.658 80.411,14.594C80.118,14.53 79.971,14.484 79.971,14.429C79.971,14.374 80.128,14.334 80.421,14.288ZM77.8,18.337C79.459,18.548 81.091,18.938 82.666,19.5C87.851,21.379 92.644,24.202 96.8,27.827C97.414,28.349 97.991,28.908 98.559,29.457C99.136,30.099 99.621,30.575 100.107,31.216C100.588,31.822 101.028,32.459 101.426,33.122C101.814,33.739 102.159,34.382 102.461,35.045C103.496,37.305 104.25,39.683 104.706,42.126C105.594,46.193 105.806,48.813 105.622,48.832C105.374,48.832 104.788,46.358 103.643,42.383C103.057,40.065 102.231,37.815 101.179,35.668C100.882,35.057 100.545,34.467 100.171,33.9C99.8,33.311 99.394,32.745 98.953,32.206C98.541,31.656 97.936,31.06 97.478,30.547C96.928,30.025 96.378,29.494 95.783,28.99C91.741,25.497 87.188,22.643 82.283,20.526C80.795,19.891 79.264,19.358 77.703,18.932C76.613,18.632 75.962,18.483 75.962,18.373C75.978,18.273 76.629,18.218 77.8,18.337ZM79.522,25.037C81.64,25.618 83.708,26.368 85.706,27.281C88.156,28.419 90.49,29.79 92.677,31.376C94.851,33.014 96.801,34.931 98.477,37.076C99.187,38.03 99.822,39.037 100.377,40.089C100.624,40.589 100.917,41.051 101.1,41.537C101.283,42.023 101.448,42.49 101.622,42.937C101.911,43.741 102.129,44.569 102.273,45.411C102.353,45.749 102.414,46.092 102.456,46.437C102.474,46.757 102.493,47.05 102.511,47.307C102.557,48.37 102.529,48.937 102.419,48.947C102.309,48.957 102.135,48.388 101.919,47.398C101.864,47.151 101.809,46.876 101.745,46.574C101.681,46.272 101.545,45.96 101.433,45.612C101.212,44.832 100.933,44.07 100.599,43.331C100.416,42.919 100.224,42.489 100.022,42.049C99.82,41.609 99.522,41.179 99.262,40.721C98.688,39.752 98.049,38.823 97.35,37.94C95.694,35.954 93.815,34.165 91.75,32.609C89.641,31.085 87.414,29.731 85.09,28.56C83.171,27.622 81.201,26.79 79.19,26.068C75.764,24.841 73.501,24.337 73.556,24.099C73.6,23.915 75.887,24.034 79.523,25.033L79.522,25.037ZM18.022,37.752C15.85,41.425 14.696,43.862 14.476,43.752C14.312,43.678 15.09,41.123 17.06,37.22C17.316,36.744 17.573,36.231 17.847,35.709C18.141,35.196 18.452,34.655 18.773,34.109C19.386,32.991 20.156,31.855 20.935,30.646C22.697,28.045 24.664,25.588 26.816,23.299C27.411,22.731 27.988,22.164 28.565,21.605C29.179,21.064 29.857,20.579 30.498,20.084C31.115,19.601 31.764,19.16 32.44,18.765C33.09,18.371 33.704,17.95 34.355,17.629C35.628,16.942 36.837,16.31 38.01,15.797C39.173,15.257 40.272,14.808 41.28,14.405C45.301,12.811 47.829,11.968 47.912,12.151C48.004,12.351 45.604,13.562 41.72,15.403C40.748,15.87 39.686,16.365 38.568,16.951C37.442,17.501 36.278,18.17 35.06,18.866C34.428,19.196 33.851,19.617 33.237,20.011C32.605,20.399 31.996,20.824 31.414,21.284C30.837,21.751 30.232,22.184 29.637,22.695C29.069,23.263 28.492,23.831 27.906,24.408C25.822,26.628 23.884,28.981 22.106,31.452C21.306,32.625 20.512,33.706 19.862,34.777C19.523,35.309 19.193,35.822 18.872,36.307C18.579,36.8 18.3,37.29 18.021,37.748L18.022,37.752ZM36.689,22.715C33.925,24.58 31.357,26.719 29.022,29.1C26.785,31.591 24.725,34.236 22.857,37.015C21.419,39.186 20.466,40.505 20.274,40.395C20.1,40.285 20.714,38.783 21.914,36.465C23.557,33.421 25.567,30.591 27.9,28.038C30.31,25.544 33.087,23.434 36.136,21.781C38.508,20.608 40.047,20.059 40.13,20.242C40.225,20.444 38.87,21.341 36.689,22.715ZM46.354,89.055C52.143,92.985 57.554,95.037 57.374,95.504C57.31,95.696 55.88,95.376 53.664,94.579C50.775,93.486 48.023,92.059 45.464,90.328C42.923,88.542 40.646,86.409 38.7,83.989C37.3,82.102 36.62,80.82 36.767,80.701C36.95,80.554 37.948,81.617 39.542,83.301C41.647,85.407 43.926,87.332 46.354,89.055ZM28.372,36.575C28.189,36.493 28.207,35.824 28.546,34.798C29.057,33.45 29.809,32.206 30.763,31.125C31.71,30.05 32.84,29.15 34.1,28.468C35.08,27.968 35.767,27.845 35.85,28.028C35.96,28.228 35.474,28.688 34.714,29.366C33.954,30.044 32.955,31.015 31.929,32.151C30.929,33.305 30.115,34.432 29.547,35.238C28.976,36.1 28.573,36.667 28.372,36.575ZM32.118,93.36C33.848,94.808 35.659,96.156 37.541,97.4C39.557,98.71 41.554,99.819 43.404,100.78C45.282,101.696 46.986,102.493 48.461,103.052C51.392,104.216 53.306,104.738 53.251,104.976C53.224,105.159 51.209,105.013 48.103,104.087C46.289,103.53 44.514,102.854 42.79,102.063C40.68,101.084 38.642,99.957 36.69,98.692C34.746,97.412 32.902,95.985 31.176,94.423C29.771,93.132 28.484,91.718 27.328,90.2C25.358,87.562 24.708,85.666 24.854,85.583C25.074,85.446 26.091,87.195 28.179,89.513C29.411,90.876 30.726,92.161 32.118,93.36ZM47.224,111.132C46.28,110.884 45.3,110.463 44.224,110.069C43.18,109.611 42.044,109.144 40.917,108.539C39.763,107.971 38.581,107.275 37.391,106.561C36.791,106.176 36.246,105.861 35.591,105.397C35.014,104.976 34.428,104.545 33.841,104.115C31.469,102.374 29.261,100.753 27.2,99.168C25.484,97.634 23.958,95.899 22.656,94C21.538,92.433 20.595,91.261 19.935,90.436C19.202,89.636 18.827,89.172 18.9,89.09C18.973,89.008 19.486,89.337 20.338,89.99C21.48,91.021 22.542,92.135 23.517,93.325C24.874,95.051 26.403,96.634 28.079,98.052C30.131,99.536 32.384,101.157 34.738,102.87C35.338,103.3 35.911,103.731 36.488,104.152C36.983,104.519 37.651,104.913 38.201,105.288C39.364,106.012 40.464,106.688 41.572,107.276C42.662,107.899 43.743,108.394 44.732,108.897C45.758,109.328 46.683,109.797 47.581,110.107C51.108,111.472 53.444,111.893 53.407,112.149C53.4,112.313 50.952,112.277 47.224,111.132ZM52.6,99.342C50.808,98.812 49.064,98.129 47.389,97.3C45.352,96.278 43.387,95.119 41.508,93.829C39.652,92.513 37.872,91.094 36.176,89.578C34.803,88.332 33.498,87.014 32.265,85.63C30.158,83.239 29.141,81.59 29.288,81.462C29.645,81.151 34.601,87.162 42.396,92.555C44.217,93.81 46.101,94.971 48.039,96.036C49.63,96.888 51.27,97.647 52.949,98.308C55.826,99.444 57.722,99.838 57.685,100.085C57.667,100.258 55.67,100.24 52.6,99.342ZM56.915,89.586C54.131,88.984 51.477,87.886 49.082,86.344C46.726,84.761 44.618,82.838 42.826,80.637C41.516,78.937 40.893,77.769 41.04,77.637C41.214,77.491 42.166,78.437 43.66,79.918C45.597,81.805 47.693,83.521 49.925,85.048C52.205,86.488 54.647,87.655 57.2,88.524C59.178,89.119 60.461,89.467 60.433,89.705C60.415,89.9 59.068,89.934 56.916,89.586L56.915,89.586ZM83.215,78.832C83.153,78.929 83.081,79.019 83,79.1C75.883,88.837 59.87,89.488 50.9,81.949C40.6,73.283 40.064,59.634 49.3,50.061C57.38,41.698 69.7,41.221 79.026,47.973C83.773,51.564 86.942,56.866 87.856,62.748C88.7,68.069 85.826,74.362 83.215,78.832ZM88.9,56.957C88.634,56.957 88.506,55.345 87.507,53.057C87.379,52.773 87.242,52.48 87.095,52.168C86.921,51.875 86.747,51.573 86.555,51.252C86.153,50.583 85.712,49.937 85.236,49.319C84.099,47.924 82.815,46.656 81.407,45.536C79.971,44.439 78.438,43.477 76.826,42.66C75.495,42.017 74.109,41.492 72.686,41.093C70.304,40.406 68.628,40.379 68.628,40.131C68.637,39.957 70.228,39.582 72.928,40.021C74.476,40.292 75.986,40.744 77.428,41.368C79.182,42.157 80.839,43.147 82.365,44.318C83.876,45.522 85.228,46.913 86.387,48.458C86.868,49.152 87.302,49.877 87.687,50.629C87.861,50.986 88.026,51.329 88.187,51.664C88.315,52.012 88.425,52.351 88.535,52.672C89.353,55.262 89.06,56.975 88.9,56.957ZM92.564,53.98C92.335,54.044 91.758,52.459 90.622,50.032C89.206,46.892 87.164,44.074 84.622,41.751C81.963,39.565 78.884,37.948 75.575,37C73.038,36.24 71.334,35.9 71.375,35.663C71.421,35.489 73.088,35.425 75.836,35.938C83.213,37.226 89.301,42.495 91.634,49.61C92.55,52.23 92.742,53.934 92.568,53.98L92.564,53.98ZM91.7,42.007C90.314,40.277 88.758,38.69 87.055,37.271C85.323,35.875 83.472,34.633 81.523,33.561C80.606,33.094 79.755,32.627 78.903,32.279C78.078,31.885 77.281,31.579 76.548,31.308C73.648,30.236 71.675,29.833 71.73,29.595C71.767,29.421 73.736,29.421 76.887,30.273C77.739,30.497 78.578,30.772 79.397,31.097C80.346,31.448 81.275,31.849 82.182,32.297C84.263,33.345 86.225,34.614 88.036,36.08C89.831,37.573 91.442,39.273 92.836,41.146C93.433,41.975 93.977,42.841 94.466,43.738C94.686,44.16 94.924,44.554 95.107,44.957C95.29,45.36 95.446,45.763 95.602,46.138C96.793,49.171 96.848,51.213 96.692,51.232C96.436,51.287 95.992,49.363 94.604,46.587C94.429,46.239 94.237,45.882 94.045,45.506C93.853,45.13 93.596,44.774 93.358,44.38C92.846,43.561 92.293,42.769 91.7,42.007ZM113.639,85.446C112.703,88.142 111.611,90.781 110.369,93.351C109.984,94.02 109.608,94.698 109.242,95.357C108.83,95.99 108.362,96.567 107.942,97.162C107.52,97.74 107.055,98.285 106.55,98.793C106.064,99.287 105.634,99.828 105.121,100.258C104.626,100.698 104.141,101.128 103.673,101.55C103.205,101.972 102.702,102.31 102.244,102.677C101.328,103.409 100.421,104.005 99.597,104.564C96.281,106.735 94.137,107.889 94.018,107.724C93.89,107.532 95.841,106.048 98.956,103.675C99.725,103.07 100.586,102.429 101.438,101.675C101.869,101.299 102.345,100.942 102.785,100.521C103.225,100.1 103.664,99.669 104.131,99.229C106.085,97.306 107.724,95.086 108.986,92.652C110.286,90.005 111.368,87.352 112.302,84.952C113.182,82.534 113.933,80.336 114.419,78.452C115.441,74.71 115.753,72.3 116,72.3C116.174,72.309 116.257,74.791 115.487,78.7C115.016,80.986 114.398,83.239 113.637,85.446L113.639,85.446Z" style="fill-rule:nonzero;"/>
            <path d="M76.711,49.665C69.255,44.838 58.739,44.251 52.171,51.049C48.717,54.63 45.319,58.849 45.264,64.093C45.075,69.819 47.472,75.337 51.786,79.107C59.728,85.785 74.286,86.783 80.843,77.44C83.206,73.391 86.22,66.969 84.992,62.114C83.765,57.241 81.026,52.459 76.711,49.665ZM80.421,66.438C79.698,73.876 72.846,79.244 65.792,79.968C56.592,80.087 48.662,72.603 49.459,63.113C50.238,53.888 57.759,48.85 66.708,50.05C74.8,51.131 81.237,58.2 80.421,66.438Z" style="fill-rule:nonzero;"/>
        </g>
        <g transform="matrix(0.744092,0,0,0.744092,9.877842,8.762839)">
            <path d="M4.743,73.594C1.692,52.721 8.87,31.455 25.688,17.979C43.074,4.046 67.9,0.016 88.748,8.214C99.337,12.382 106.464,20.654 112.675,29.97C119.588,40.032 123.497,51.856 123.942,64.056C123.944,67.221 123.695,70.317 123.216,73.328C122.753,70.37 122.075,67.484 121.197,64.685C121.199,64.476 121.2,64.266 121.2,64.056C120.938,53.968 118.079,44.117 112.9,35.456C108.164,27.579 101.852,18.033 93.6,13.481C71.279,1.2 41.206,6.217 23.178,23.76C12.155,34.489 6.524,49.823 6.682,65.08C5.837,67.839 5.186,70.682 4.743,73.594ZM28.863,34.042C29.35,32.983 29.99,32 30.763,31.125C31.71,30.05 32.84,29.15 34.1,28.468C35.077,27.973 35.764,27.845 35.847,28.028C35.957,28.228 35.471,28.688 34.711,29.366C34.056,29.951 33.223,30.753 32.348,31.691C31.158,32.435 29.996,33.219 28.863,34.042ZM101.118,35.544C100.836,34.978 100.52,34.429 100.171,33.9C99.8,33.311 99.394,32.745 98.953,32.206C98.541,31.656 97.936,31.06 97.478,30.548C96.928,30.025 96.378,29.494 95.783,28.99C91.741,25.497 87.188,22.643 82.283,20.526C80.795,19.891 79.264,19.358 77.703,18.932C76.613,18.632 75.962,18.483 75.962,18.373C75.98,18.273 76.631,18.218 77.803,18.337C79.461,18.548 81.092,18.938 82.666,19.5C87.851,21.379 92.644,24.202 96.8,27.827C97.414,28.349 97.991,28.908 98.559,29.457C99.136,30.099 99.621,30.575 100.107,31.216C100.588,31.822 101.028,32.459 101.426,33.122C101.814,33.739 102.16,34.382 102.461,35.045C102.829,35.847 103.161,36.664 103.456,37.493C102.694,36.824 101.914,36.174 101.118,35.544ZM108.104,42.035C107.725,40.983 107.208,39.446 106.547,37.564C105.805,35.392 104.892,33.282 103.817,31.253C103.487,30.703 103.203,30.099 102.828,29.553L101.692,27.904C101.234,27.355 100.757,26.804 100.272,26.246C99.798,25.705 99.29,25.194 98.751,24.716C94.947,21.302 90.656,18.474 86.018,16.326C84.624,15.677 83.166,15.176 81.667,14.832C81.154,14.686 80.705,14.658 80.412,14.594C80.119,14.53 79.972,14.484 79.972,14.429C79.972,14.374 80.128,14.329 80.421,14.283C80.85,14.211 81.288,14.195 81.721,14.237C83.333,14.354 84.918,14.716 86.421,15.309C91.351,17.224 95.887,20.028 99.805,23.581C100.386,24.102 100.933,24.659 101.444,25.248C101.921,25.816 102.397,26.356 102.844,26.924C103.265,27.547 103.678,28.161 104.071,28.765C104.464,29.369 104.749,29.993 105.071,30.588C106.129,32.715 106.973,34.941 107.591,37.235C108.312,39.864 108.709,41.832 108.832,42.842C108.591,42.571 108.349,42.302 108.104,42.035ZM47.911,12.144C48.003,12.344 45.603,13.555 41.719,15.396C40.748,15.863 39.685,16.358 38.567,16.944C37.441,17.494 36.277,18.163 35.059,18.859C34.427,19.189 33.85,19.61 33.236,20.004C32.604,20.392 31.995,20.817 31.413,21.277C30.836,21.744 30.231,22.177 29.636,22.688C29.068,23.256 28.491,23.824 27.905,24.401C25.821,26.621 23.883,28.974 22.105,31.445C21.305,32.618 20.511,33.699 19.861,34.77C19.522,35.302 19.192,35.815 18.871,36.3C18.578,36.8 18.294,37.29 18.02,37.748C15.849,41.421 14.694,43.858 14.474,43.748C14.31,43.674 15.088,41.119 17.058,37.216C17.314,36.74 17.571,36.227 17.845,35.705C18.139,35.192 18.45,34.651 18.771,34.105C19.384,32.987 20.154,31.851 20.933,30.642C22.695,28.041 24.662,25.584 26.814,23.295C27.409,22.728 27.986,22.16 28.563,21.601C29.177,21.06 29.855,20.575 30.496,20.08C31.113,19.597 31.762,19.156 32.438,18.761C33.088,18.367 33.702,17.946 34.353,17.625C35.626,16.938 36.835,16.306 38.008,15.793C39.171,15.253 40.27,14.804 41.278,14.401C45.3,12.8 47.828,11.961 47.911,12.144ZM40.125,20.242C40.225,20.442 38.87,21.342 36.689,22.715C33.925,24.58 31.357,26.719 29.022,29.1C26.785,31.591 24.725,34.236 22.857,37.015C21.419,39.186 20.466,40.505 20.274,40.395C20.1,40.285 20.714,38.783 21.914,36.465C23.557,33.421 25.567,30.591 27.9,28.038C30.31,25.544 33.087,23.434 36.136,21.781C38.5,20.608 40.042,20.059 40.125,20.242Z"/>
        </g>
        <g transform="matrix(0.744092,0,0,0.744092,9.877842,-2.976232)">
            <path d="M4.547,72.139C2.031,51.737 9.26,31.142 25.688,17.979C43.074,4.046 67.9,0.016 88.748,8.214C99.337,12.382 106.464,20.654 112.675,29.97C119.588,40.032 123.497,51.856 123.942,64.056C123.943,66.727 123.766,69.348 123.424,71.91C122.949,68.31 122.156,64.811 121.074,61.44C120.425,52.271 117.63,43.367 112.9,35.456C108.164,27.579 101.852,18.033 93.6,13.481C71.279,1.2 41.206,6.217 23.178,23.76C12.877,33.786 7.285,47.834 6.725,62.081C5.723,65.325 4.989,68.686 4.547,72.139ZM21.282,37.721C21.469,37.336 21.681,36.916 21.914,36.465C23.557,33.421 25.567,30.591 27.9,28.038C30.31,25.544 33.087,23.434 36.136,21.781C38.5,20.608 40.042,20.059 40.125,20.242C40.225,20.442 38.87,21.342 36.689,22.715C33.925,24.58 31.357,26.719 29.022,29.1C27.42,30.884 25.909,32.747 24.494,34.681C23.386,35.655 22.315,36.669 21.282,37.721ZM95.465,28.718C91.502,25.349 87.06,22.588 82.283,20.526C80.795,19.891 79.264,19.358 77.703,18.932C76.613,18.632 75.962,18.483 75.962,18.373C75.98,18.273 76.631,18.218 77.803,18.337C79.461,18.548 81.092,18.938 82.666,19.5C87.851,21.379 92.644,24.202 96.8,27.827C97.414,28.349 97.991,28.908 98.559,29.457C99.136,30.099 99.621,30.575 100.107,31.216C100.497,31.708 100.861,32.22 101.197,32.75C99.369,31.298 97.456,29.951 95.465,28.718ZM106.538,37.537C105.797,35.374 104.887,33.273 103.817,31.253C103.487,30.703 103.203,30.099 102.828,29.553L101.692,27.904C101.234,27.355 100.757,26.804 100.272,26.246C99.798,25.705 99.29,25.194 98.751,24.716C94.947,21.302 90.656,18.474 86.018,16.326C84.624,15.677 83.166,15.176 81.667,14.832C81.154,14.686 80.705,14.658 80.412,14.594C80.119,14.53 79.972,14.484 79.972,14.429C79.972,14.374 80.128,14.329 80.421,14.283C80.85,14.211 81.288,14.195 81.721,14.237C83.333,14.354 84.918,14.716 86.421,15.309C91.351,17.224 95.887,20.028 99.805,23.581C100.386,24.102 100.933,24.659 101.444,25.248C101.921,25.816 102.397,26.356 102.844,26.924C103.265,27.547 103.678,28.161 104.071,28.765C104.464,29.369 104.749,29.993 105.071,30.588C106.129,32.715 106.973,34.941 107.591,37.235C107.781,37.927 107.948,38.573 108.094,39.168C107.585,38.614 107.066,38.071 106.538,37.537ZM47.911,12.144C48.003,12.344 45.603,13.555 41.719,15.396C40.748,15.863 39.685,16.358 38.567,16.944C37.441,17.494 36.277,18.163 35.059,18.859C34.427,19.189 33.85,19.61 33.236,20.004C32.604,20.392 31.995,20.817 31.413,21.277C30.836,21.744 30.231,22.177 29.636,22.688C29.068,23.256 28.491,23.824 27.905,24.401C25.821,26.621 23.883,28.974 22.105,31.445C21.305,32.618 20.511,33.699 19.861,34.77C19.522,35.302 19.192,35.815 18.871,36.3C18.578,36.8 18.294,37.29 18.02,37.748C15.849,41.421 14.694,43.858 14.474,43.748C14.31,43.674 15.088,41.119 17.058,37.216C17.314,36.74 17.571,36.227 17.845,35.705C18.139,35.192 18.45,34.651 18.771,34.105C19.384,32.987 20.154,31.851 20.933,30.642C22.695,28.041 24.662,25.584 26.814,23.295C27.409,22.728 27.986,22.16 28.563,21.601C29.177,21.06 29.855,20.575 30.496,20.08C31.113,19.597 31.762,19.156 32.438,18.761C33.088,18.367 33.702,17.946 34.353,17.625C35.626,16.938 36.835,16.306 38.008,15.793C39.171,15.253 40.27,14.804 41.278,14.401C45.3,12.8 47.828,11.961 47.911,12.144Z"/>
        </g>
    </g>
</svg>
